<svg width="22" height="33" viewBox="0 0 22 33" fill="none" xmlns="http://www.w3.org/2000/svg">
<path d="M0.958807 12V3.27273H6.4304V4.40625H2.27557V7.06534H6.14489V8.1946H2.27557V10.8665H6.48153V12H0.958807Z" fill="#963700"/>
<path d="M11.9588 3.27273H13.5568L16.3352 10.0568H16.4375L19.2159 3.27273H20.8139V12H19.5611V5.68466H19.4801L16.9062 11.9872H15.8665L13.2926 5.6804H13.2116V12H11.9588V3.27273Z" fill="#963700"/>
<path d="M0.707386 30V28.6705L3.81392 25.794C4.07813 25.5384 4.29972 25.3082 4.47869 25.1037C4.66051 24.8991 4.7983 24.6989 4.89205 24.5028C4.9858 24.304 5.03267 24.0895 5.03267 23.8594C5.03267 23.6037 4.97443 23.3835 4.85795 23.1989C4.74148 23.0114 4.58239 22.8679 4.38068 22.7685C4.17898 22.6662 3.95028 22.6151 3.6946 22.6151C3.42756 22.6151 3.1946 22.669 2.99574 22.777C2.79688 22.8849 2.64347 23.0398 2.53551 23.2415C2.42756 23.4432 2.37358 23.6832 2.37358 23.9616H0.622159C0.622159 23.3906 0.75142 22.8949 1.00994 22.4744C1.26847 22.054 1.63068 21.7287 2.09659 21.4986C2.5625 21.2685 3.09943 21.1534 3.70739 21.1534C4.33239 21.1534 4.87642 21.2642 5.33949 21.4858C5.8054 21.7045 6.16761 22.0085 6.42614 22.3977C6.68466 22.7869 6.81392 23.233 6.81392 23.7358C6.81392 24.0653 6.74858 24.3906 6.6179 24.7116C6.49006 25.0327 6.26136 25.3892 5.93182 25.7812C5.60227 26.1705 5.13778 26.6378 4.53835 27.1832L3.2642 28.4318V28.4915H6.92898V30H0.707386Z" fill="#963700"/>
<path d="M14.4886 21.2727L16.2486 24.2472H16.3168L18.0852 21.2727H20.169L17.5057 25.6364L20.2287 30H18.1065L16.3168 27.0213H16.2486L14.4588 30H12.3452L15.0767 25.6364L12.3963 21.2727H14.4886Z" fill="#963700"/>
</svg>
